<svg width="20" height="21" viewBox="0 0 20 21" fill="none" xmlns="http://www.w3.org/2000/svg">
<path d="M13.1872 7.04691C12.864 5.28344 12.4353 3.39326 11.1513 2.06908C10.4966 1.35314 9.32021 1.44606 8.72676 2.18946C7.53774 3.52209 7.11535 5.33624 6.8049 7.04691H13.1872ZM6.53457 10.5063C6.63172 11.2201 6.39096 12.3605 6.8049 12.8146H13.335C13.4934 11.2813 13.4934 9.73117 13.335 8.20002H6.65495C6.5747 8.96665 6.53457 9.7354 6.53457 10.5063ZM18.2431 7.04691C17.7283 5.82844 16.9506 4.73882 15.9655 3.856C14.9805 2.97319 13.8125 2.319 12.5451 1.94025C13.5948 3.43973 14.0573 5.26232 14.3487 7.04479L18.2431 7.04691ZM7.4427 1.94025C6.17619 2.31905 5.00903 2.97307 4.02473 3.85551C3.04042 4.73795 2.2633 5.82701 1.74893 7.04479H5.64334C5.93267 5.26232 6.39518 3.43973 7.4427 1.94025ZM18.6296 8.20002H14.4923C14.6507 9.73328 14.6507 11.2813 14.4923 12.8146H18.6275C19.0379 11.304 19.0373 9.71139 18.6296 8.20002ZM5.38146 10.5063C5.26108 9.79242 5.66234 8.65409 5.34767 8.20002H1.36456C0.954 9.71082 0.954 11.3038 1.36456 12.8146H5.4955C5.42106 12.0474 5.383 11.2771 5.38146 10.5063ZM6.8049 13.9698C7.13014 15.7269 7.55675 17.6192 8.84503 18.9413C9.4955 19.6594 10.674 19.5686 11.2674 18.8273C12.4543 17.4925 12.8767 15.6805 13.1893 13.9698H6.8049ZM12.5494 19.0744C13.8165 18.6951 14.9842 18.0407 15.9692 17.1579C16.9541 16.2752 17.732 15.1859 18.2473 13.9677H14.3529C14.0594 15.7502 13.5969 17.5749 12.5494 19.0744ZM1.74893 13.9677C2.26373 15.1862 3.04148 16.2758 4.02652 17.1586C5.01157 18.0414 6.17956 18.6956 7.44693 19.0744C6.39941 17.5728 5.9369 15.7523 5.64334 13.9677H1.74893Z" fill="#545454"/>
</svg>
