<svg width="36" height="36" viewBox="0 0 36 36" fill="none" xmlns="http://www.w3.org/2000/svg">
<circle cx="18" cy="18" r="17.5" stroke="#222222"/>
<path d="M18 8.00195C16.6868 8.00195 15.3864 8.26703 14.1732 8.78206C12.9599 9.29708 11.8575 10.052 10.9289 11.0036C9.05357 12.9255 8 15.5322 8 18.2502C8 22.78 10.87 26.6231 14.84 27.9861C15.34 28.0681 15.5 27.7504 15.5 27.4737C15.5 27.238 15.5 26.5923 15.5 25.7417C12.73 26.3566 12.14 24.3684 12.14 24.3684C11.68 23.1796 11.03 22.8619 11.03 22.8619C10.12 22.2266 11.1 22.247 11.1 22.247C12.1 22.3188 12.63 23.3026 12.63 23.3026C13.5 24.8604 14.97 24.3992 15.54 24.1532C15.63 23.4871 15.89 23.0362 16.17 22.78C13.95 22.5238 11.62 21.6424 11.62 17.7378C11.62 16.6003 12 15.6882 12.65 14.9605C12.55 14.7043 12.2 13.6385 12.75 12.255C12.75 12.255 13.59 11.9783 15.5 13.3003C16.29 13.0748 17.15 12.9621 18 12.9621C18.85 12.9621 19.71 13.0748 20.5 13.3003C22.41 11.9783 23.25 12.255 23.25 12.255C23.8 13.6385 23.45 14.7043 23.35 14.9605C24 15.6882 24.38 16.6003 24.38 17.7378C24.38 21.6526 22.04 22.5135 19.81 22.7697C20.17 23.0874 20.5 23.7126 20.5 24.6656C20.5 26.0389 20.5 27.1457 20.5 27.4737C20.5 27.7504 20.66 28.0783 21.17 27.9861C25.14 26.6128 28 22.78 28 18.2502C28 16.9044 27.7413 15.5718 27.2388 14.3284C26.7362 13.085 25.9997 11.9552 25.0711 11.0036C24.1425 10.052 23.0401 9.29708 21.8268 8.78206C20.6136 8.26703 19.3132 8.00195 18 8.00195Z" fill="black"/>
</svg>
