<svg width="36" height="36" viewBox="0 0 36 36" fill="none" xmlns="http://www.w3.org/2000/svg">
<circle cx="18" cy="18" r="17.5" stroke="#222222"/>
<path d="M10.6155 25C10.1552 25 9.77083 24.8458 9.4625 24.5375C9.15417 24.2292 9 23.8448 9 23.3845V12.6155C9 12.1552 9.15417 11.7708 9.4625 11.4625C9.77083 11.1542 10.1552 11 10.6155 11H25.3845C25.8448 11 26.2292 11.1542 26.5375 11.4625C26.8458 11.7708 27 12.1552 27 12.6155V23.3845C27 23.8448 26.8458 24.2292 26.5375 24.5375C26.2292 24.8458 25.8448 25 25.3845 25H10.6155ZM18 18.1155L10 12.8845V23.3845C10 23.564 10.0577 23.7115 10.173 23.827C10.2885 23.9423 10.436 24 10.6155 24H25.3845C25.564 24 25.7115 23.9423 25.827 23.827C25.9423 23.7115 26 23.564 26 23.3845V12.8845L18 18.1155ZM18 17L25.6923 12H10.3077L18 17ZM10 12.8845V12V23.3845C10 23.564 10.0577 23.7115 10.173 23.827C10.2885 23.9423 10.436 24 10.6155 24H10V12.8845Z" fill="#1C1B1F"/>
</svg>
