<svg width="513" height="85" viewBox="0 0 513 85" fill="none" xmlns="http://www.w3.org/2000/svg">
<g clip-path="url(#clip0_51_1249)">
<path d="M230.91 49.3229H216.931V44.9972H230.91V49.3229Z" fill="#0071D7"/>
<path d="M111.439 23.2441H120.407C129.375 23.2441 140.108 22.9451 140.108 34.5592C140.153 36.9644 139.291 39.2984 137.693 41.0961C136.094 42.8939 133.877 44.0235 131.483 44.2598V44.3792C133.755 44.5588 135.071 46.8305 135.967 48.6841L142.679 65.0211H133.337L128.33 51.9723C127.134 48.8633 126.088 47.6375 122.515 47.6375H119.825V65.0358H111.44L111.439 23.2441ZM119.825 41.0911H122.575C126.7 41.0911 131.439 40.4931 131.439 35.2766C131.439 30.0601 126.775 29.836 122.575 29.836H119.825V41.0911Z" fill="#0071D7"/>
<path d="M155.875 29.8205H143.918V23.2437H176.248V29.8352H164.29V65.0355H155.905L155.875 29.8205Z" fill="#0071D7"/>
<path d="M182.033 23.2441H191.001C199.97 23.2441 210.702 22.9451 210.702 34.5592C210.747 36.9644 209.885 39.2984 208.287 41.0961C206.688 42.8939 204.471 44.0235 202.077 44.2598V44.3792C204.349 44.5588 205.665 46.8305 206.561 48.6841L213.273 65.0211H203.931L198.909 51.9723C197.713 48.8633 196.637 47.6674 193.094 47.6674H190.359V65.0358H181.974L182.033 23.2441ZM190.359 41.0759H193.109C197.235 41.0759 201.973 40.478 201.973 35.2615C201.973 30.045 197.309 29.8209 193.109 29.8209H190.359V41.0759Z" fill="#0071D7"/>
<path d="M235.444 64.7588H241.423V30.4503H241.54L260.435 64.7588H268.095V23.023H262.116V56.6305H262L243.573 23.023H235.445L235.444 64.7588Z" fill="#0071D7"/>
<path d="M280.48 64.7588H303.859V59.5039H286.459V45.7478H302.294V40.4929H286.459V28.2782H303.859V23.0233H280.48V64.7588Z" fill="#0071D7"/>
<path d="M323.229 64.7588H329.208V28.2785H342.17V23.0236H310.244V28.2785H323.229L323.229 64.7588Z" fill="#0071D7"/>
<path d="M346.242 64.7588H375.108V59.5039H353.177L374.758 28.4181V23.023H346.965V28.2779H367.891L346.242 59.3861V64.7588Z" fill="#0071D7"/>
<path d="M392.704 64.7588H398.683V28.2785H411.645V23.0236H379.719V28.2785H392.704L392.704 64.7588Z" fill="#0071D7"/>
<path d="M419.43 64.7588H442.809V59.5039H425.409V45.7478H441.244V40.4929H425.409V28.2782H442.809V23.0233H419.43V64.7588Z" fill="#0071D7"/>
<path d="M473.646 23.7943C470.774 22.79 467.504 22.2996 464.748 22.2996C457.204 22.2996 451.342 26.2465 451.342 33.6735C451.342 46.6357 469.279 44.0665 469.279 53.4084C469.279 58.3129 464.514 60.2048 461.104 60.2048C458.045 60.2048 454.448 59.0137 452.416 58.1729L451.832 63.7315C454.588 64.6423 457.438 65.4831 460.38 65.4831C468.742 65.4831 475.631 61.9565 475.631 53.0349C475.631 39.2788 457.694 41.1472 457.694 33.1371C457.694 28.7696 461.641 27.5785 464.981 27.5785C468.087 27.5785 469.769 28.1157 472.805 29.3067L473.646 23.7943Z" fill="#0071D7"/>
<path d="M493.568 64.7588H499.547V28.2785H512.509V23.0236H480.583V28.2785H493.568L493.568 64.7588Z" fill="#0071D7"/>
<path d="M5.80128 15.1248V55.9048C7.80134 56.4232 9.28302 58.2365 9.28302 60.3955C9.28302 62.9558 7.20086 65.0395 4.64071 65.0395C2.08032 65.0395 -0.00354767 62.9558 -0.00354767 60.3955C-0.00354767 58.2365 1.47987 56.4232 3.48017 55.9048V12.8033H55.7092V15.1245L5.80128 15.1248ZM78.9272 32.5376C78.9272 29.9773 76.8433 27.8949 74.283 27.8949C71.7226 27.8949 69.6405 29.9773 69.6405 32.5376C69.6405 34.6999 71.1274 36.5167 73.131 37.0316V82.454H23.2139V84.7753H75.4525V37.0261C77.4472 36.506 78.9272 34.6946 78.9272 32.5376ZM65.005 69.6751C62.8425 69.6751 61.0259 71.162 60.511 73.1672H15.088V23.2508H12.7669V75.4887H60.5161C61.0363 77.4836 62.8479 78.9636 65.0051 78.9636C67.5654 78.9636 69.6475 76.8798 69.6475 74.3175C69.6475 71.7574 67.5653 69.6751 65.005 69.6751ZM36.9913 3.51257C36.473 1.51428 34.6596 0.0308228 32.5007 0.0308228C29.9403 0.0308228 27.8582 2.11448 27.8582 4.67481C27.8582 7.2352 29.9404 9.31735 32.5007 9.31735C34.6597 9.31735 36.473 7.83394 36.9913 5.83542H82.4173V55.7418H84.7387V3.51212L36.9913 3.51257Z" fill="#0071D7"/>
<path d="M59.2 49.4664C58.2802 51.6412 56.9632 53.5945 55.2855 55.2721C53.6081 56.9495 51.6546 58.2665 49.48 59.1865C47.2288 60.1385 44.8368 60.6214 42.3709 60.6214C39.9049 60.6214 37.5132 60.1386 35.2617 59.1865C33.0869 58.2665 31.1334 56.9495 29.456 55.2721C27.7784 53.5945 26.4616 51.6412 25.5415 49.4664C24.5895 47.2152 24.1067 44.8234 24.1067 42.3572C24.1067 39.891 24.5895 37.4993 25.5415 35.2481C26.4616 33.0732 27.7784 31.1199 29.456 29.4425C31.1334 27.7648 33.0869 26.4478 35.2617 25.528C37.5129 24.5758 39.9047 24.0929 42.3709 24.0929C44.8371 24.0929 47.2288 24.5757 49.48 25.528C51.6546 26.4478 53.6082 27.7648 55.2855 29.4425C56.9632 31.1199 58.2802 33.0732 59.2 35.2481C60.152 37.4992 60.6351 39.8912 60.6351 42.3572C60.6351 44.8232 60.152 47.2149 59.2 49.4664ZM60.3394 34.7664C59.3571 32.4442 57.9512 30.3587 56.1603 28.5683C54.3694 26.7774 52.284 25.3715 49.9616 24.3892C47.557 23.3721 45.0033 22.8564 42.3708 22.8564C39.7386 22.8564 37.1846 23.3724 34.7801 24.3892C32.458 25.3715 30.3726 26.7774 28.5819 28.5683C26.7911 30.3589 25.3851 32.4443 24.4031 34.7664C23.386 37.1712 22.8702 39.725 22.8702 42.3572C22.8702 44.9895 23.386 47.5435 24.4031 49.948C25.3851 52.2704 26.7911 54.3559 28.5819 56.1467C30.3728 57.9378 32.4582 59.3437 34.7801 60.3258C37.1848 61.3428 39.7388 61.8584 42.3708 61.8584C45.0033 61.8584 47.5571 61.343 49.9616 60.3258C52.2838 59.3437 54.3693 57.9378 56.1603 56.1467C57.9512 54.3561 59.3571 52.2706 60.3394 49.948C61.3563 47.5437 61.872 44.9897 61.872 42.3572C61.872 39.7247 61.3563 37.1709 60.3394 34.7664Z" fill="#0071D7"/>
<path d="M47.8299 49.8816H36.9045C36.7737 49.8816 36.6675 49.9878 36.6675 50.1183V50.8777C36.6675 51.0082 36.7737 51.115 36.9045 51.115H47.8299C47.9609 51.115 48.0669 51.0087 48.0669 50.8777V50.1183C48.0669 49.9878 47.9609 49.8816 47.8299 49.8816Z" fill="#0071D7"/>
<path d="M45.7954 52.4913H38.939C38.8844 52.4913 38.8398 52.5328 38.8398 52.5903V53.6252C38.8398 53.6785 38.8843 53.7242 38.939 53.7242H45.7954C45.85 53.7242 45.8946 53.6827 45.8946 53.6252V52.5903C45.8946 52.537 45.8501 52.4913 45.7954 52.4913Z" fill="#0071D7"/>
<path d="M42.3672 43.12C41.9424 43.12 41.5966 42.7742 41.5966 42.3491C41.5966 41.9245 41.9424 41.5786 42.3672 41.5786C42.7922 41.5786 43.1378 41.9243 43.1378 42.3491C43.1378 42.7744 42.7922 43.12 42.3672 43.12ZM42.3672 40.6879C41.4511 40.6879 40.7059 41.4331 40.7059 42.3491C40.7059 43.2652 41.4511 44.0107 42.3672 44.0107C43.2833 44.0107 44.0285 43.2652 44.0285 42.3491C44.0285 41.4331 43.2833 40.6879 42.3672 40.6879Z" fill="#0071D7"/>
<path d="M44.8642 40.451C44.6943 40.2327 44.4965 40.0375 44.2761 39.8709L48.7127 36.0076L44.8642 40.451ZM42.3683 44.6697C41.1137 44.6697 40.0933 43.6494 40.0933 42.3947C40.0933 41.1402 41.1137 40.1196 42.3683 40.1196C43.6226 40.1196 44.6433 41.1402 44.6433 42.3947C44.6433 43.6494 43.6227 44.6697 42.3683 44.6697ZM54.5676 30.1359C54.3653 29.9342 54.0413 29.923 53.8259 30.1122L43.2203 39.3477C42.9491 39.2712 42.6636 39.2302 42.3682 39.2302C40.6226 39.2302 39.2025 40.6503 39.2025 42.3961C39.2025 44.1415 40.6226 45.5619 42.3682 45.5619C44.1139 45.5619 45.5342 44.1415 45.5342 42.3961C45.5342 42.0829 45.4873 41.78 45.4024 41.4939L54.5946 30.8789C54.782 30.663 54.7698 30.3379 54.5676 30.1359Z" fill="#0071D7"/>
<path d="M51.9046 30.6643L52.8498 29.8412C49.9127 27.3835 46.243 26.0444 42.3676 26.0444C37.9956 26.0444 33.8853 27.7468 30.7946 30.8381C27.7031 33.9296 26.0005 38.0398 26.0005 42.4117C26.0005 44.3409 26.3333 46.2295 26.9892 48.0258C27.623 49.7613 28.5422 51.3681 29.7208 52.8014L30.6764 52.0156C29.5865 50.6904 28.737 49.2054 28.1513 47.6015C27.5451 45.9417 27.2377 44.1957 27.2377 42.4117C27.2377 38.3703 28.8116 34.5707 31.6692 31.713C34.527 28.8554 38.3264 27.2816 42.3679 27.2816C45.8838 27.2816 49.2154 28.473 51.9046 30.6643Z" fill="#0071D7"/>
<path d="M54.1229 32.859C56.3094 35.5463 57.4982 38.8751 57.4982 42.3869C57.4982 44.171 57.191 45.9169 56.5848 47.5767C55.9991 49.1807 55.1497 50.6656 54.0598 51.9908L55.0153 52.7767C56.194 51.3433 57.1129 49.7366 57.7467 48.0011C58.4028 46.2048 58.7356 44.3162 58.7356 42.3869C58.7356 38.5137 57.3982 34.8466 54.9438 31.9106L54.1229 32.859Z" fill="#0071D7"/>
</g>
<defs>
<clipPath id="clip0_51_1249">
<rect width="512.504" height="84.7446" fill="white"/>
</clipPath>
</defs>
</svg>
