<svg width="20" height="21" viewBox="0 0 20 21" fill="none" xmlns="http://www.w3.org/2000/svg">
<path d="M12.9105 7.51359C12.9105 6.69134 12.6198 5.98877 12.0383 5.40588C11.4568 4.82299 10.7542 4.53224 9.93058 4.53365C9.10692 4.53506 8.40506 4.8258 7.82498 5.40588C7.2449 5.98596 6.95346 6.68853 6.95064 7.51359C6.94782 8.33865 7.23927 9.04122 7.82498 9.6213C8.41069 10.2014 9.11255 10.4921 9.93058 10.4935C10.7486 10.4949 11.4512 10.2042 12.0383 9.6213C12.6254 9.0384 12.9161 8.33583 12.9105 7.51359ZM15.8905 7.51359C15.8905 8.35836 15.763 9.05319 15.5082 9.59806L11.2695 18.6076C11.1456 18.8638 10.9612 19.0659 10.7162 19.2137C10.4712 19.3615 10.2094 19.4354 9.93058 19.4354C9.6518 19.4354 9.38992 19.3615 9.14494 19.2137C8.89995 19.0659 8.71973 18.8638 8.60428 18.6076L4.35507 9.59806C4.09883 9.05459 3.9707 8.35977 3.9707 7.51359C3.9707 5.86769 4.55289 4.46325 5.71727 3.30028C6.88165 2.13731 8.28609 1.55512 9.93058 1.55371C11.5751 1.55231 12.9802 2.13449 14.146 3.30028C15.3118 4.46607 15.8933 5.8705 15.8905 7.51359Z" fill="#545454"/>
</svg>
