<?xml version="1.0" encoding="UTF-8"?>
<!-- Created with Inkscape (http://www.inkscape.org/) -->
<svg width="32" height="32" version="1.1" viewBox="0 0 8.4667 8.4667" xmlns="http://www.w3.org/2000/svg" xmlns:cc="http://creativecommons.org/ns#" xmlns:dc="http://purl.org/dc/elements/1.1/" xmlns:rdf="http://www.w3.org/1999/02/22-rdf-syntax-ns#">
 <metadata>
  <rdf:RDF>
   <cc:Work rdf:about="">
    <dc:format>image/svg+xml</dc:format>
    <dc:type rdf:resource="http://purl.org/dc/dcmitype/StillImage"/>
    <dc:title/>
   </cc:Work>
  </rdf:RDF>
 </metadata>
 <g transform="translate(0 -288.53)" fill="#5f6368">
  <path d="m8.68e-4 288.9v2.0834h1.3886v1.3896h0.69477v-3.4729h-0.69477v1.3896h-0.69477v-1.3896zm3.2403 0c-0.38361 0-0.6938 0.31117-0.6938 0.69477v2.0834c0 0.3836 0.3102 0.69477 0.6938 0.69477h0.69477c0.3836 0 0.69477-0.31117 0.69477-0.69477v-1.3886h-1.0417v0.69477h0.3469v0.69381h-0.69477v-2.0834h1.3895v-0.69477z" stroke-width=".23147"/>
  <path d="m5.6231 297h-0.49613a0.49613 0.49613 0 0 1-0.49613-0.49613v-2.6458a0.49613 0.49613 0 0 1 0.49613-0.49613h0.49613a0.49613 0.49613 0 0 1 0.49613 0.49613v2.6458a0.49613 0.49613 0 0 1-0.49613 0.49613zm-2.3154 0h-0.49613a0.49613 0.49613 0 0 1-0.49613-0.49613v-1.9845a0.49613 0.49613 0 0 1 0.49613-0.49613h0.49613a0.49613 0.49613 0 0 1 0.49613 0.49613v1.9845a0.49613 0.49613 0 0 1-0.49663 0.49613zm-2.3154 0h-0.49613a0.49613 0.49613 0 0 1-0.49613-0.49613v-0.99226a0.49613 0.49613 0 0 1 0.49613-0.49613h0.49613a0.49613 0.49613 0 0 1 0.49613 0.49613v0.99226a0.49613 0.49613 0 0 1-0.49613 0.49613z" stroke-width=".49613" data-name="Exclusion 6"/>
  <path d="m7.4419 291.71h0.49613a0.49613 0.49613 0 0 1 0.49613 0.49612v4.3a0.49613 0.49613 0 0 1-0.49613 0.49613h-0.49613a0.49613 0.49613 0 0 1-0.49613-0.49613v-4.3a0.49613 0.49613 0 0 1 0.49613-0.49612z" stroke-width=".49613" data-name="Cellular-Connection-path"/>
 </g>
</svg>
