<?xml version="1.0" encoding="UTF-8"?>
<!-- Created with Inkscape (http://www.inkscape.org/) -->
<svg width="32" height="32" version="1.1" viewBox="0 0 8.4667 8.4667" xmlns="http://www.w3.org/2000/svg" xmlns:cc="http://creativecommons.org/ns#" xmlns:dc="http://purl.org/dc/elements/1.1/" xmlns:rdf="http://www.w3.org/1999/02/22-rdf-syntax-ns#">
 <metadata>
  <rdf:RDF>
   <cc:Work rdf:about="">
    <dc:format>image/svg+xml</dc:format>
    <dc:type rdf:resource="http://purl.org/dc/dcmitype/StillImage"/>
    <dc:title/>
   </cc:Work>
  </rdf:RDF>
 </metadata>
 <g transform="translate(0 -288.53)">
  <g transform="matrix(.0055122 0 0 -.0055122 1.38 296.29)">
   <g transform="matrix(90.006 0 0 -90.006 -569811 26544)" data-name="Gruppe 8691">
    <path d="m6337.3 285.6v-2.8h-2.1v1.4h0.7v1.4h-1.4v-4.2h2.8v-1.4h-2.8a1.4 1.4 0 0 0-1.4 1.4v4.2a1.4 1.4 0 0 0 1.4 1.4h1.4a1.4 1.4 0 0 0 1.4-1.4m-5.6-5.6h-3.267v4.2h1.867v1.4h-1.867v1.4h2.567a0.7 0.7 0 0 0 0.7-0.69999v-2.8a0.7 0.7 0 0 0-0.7-0.7h-1.167v-1.4h1.867z" fill="#5f6368"/>
   </g>
  </g>
 </g>
</svg>
