<?xml version="1.0" encoding="UTF-8"?>
<!-- Created with Inkscape (http://www.inkscape.org/) -->
<svg width="32" height="32" version="1.1" viewBox="0 0 8.4667 8.4667" xmlns="http://www.w3.org/2000/svg" xmlns:cc="http://creativecommons.org/ns#" xmlns:dc="http://purl.org/dc/elements/1.1/" xmlns:rdf="http://www.w3.org/1999/02/22-rdf-syntax-ns#">
 <metadata>
  <rdf:RDF>
   <cc:Work rdf:about="">
    <dc:format>image/svg+xml</dc:format>
    <dc:type rdf:resource="http://purl.org/dc/dcmitype/StillImage"/>
    <dc:title/>
   </cc:Work>
  </rdf:RDF>
 </metadata>
 <g transform="translate(0 -288.53)">
  <g transform="matrix(.0055122 0 0 -.0055122 1.38 296.29)">
   <path d="m791.76 936.24c-27.838 151.1-64.57 313.54-175.19 427.21-55.84 61.785-157.1 53.767-208.08-9.8854-102.01-114.56-138.31-270.27-164.96-417.32h548.24zm-571.47-297.35c8.3633-61.232-12.373-159.2 23.249-198.23h560.91c13.588 131.69 13.588 264.77 0 396.47h-573.95c-6.7669-65.847-10.214-132.04-10.214-198.23zm1005.7 297.35c-87.019 209.4-271.58 375.2-489.39 438.59 90.021-129.01 129.77-285.37 154.87-438.59h334.52zm-927.67 438.59c-217.66-63.487-402.29-229.15-489.08-438.59h334.52c24.831 153.08 64.55 309.76 154.56 438.59zm960.81-537.71h-355.27c13.534-131.71 13.516-264.76 0-396.47h354.96c35.469 129.19 35.188 267.18 0.3648 396.47zm-1138-198.23c-10.196 61.326 24.15 159.12-2.8301 198.23h-342.24c-35.277-129.13-35.284-267.33 0-396.47h354.96c-6.2589 65.884-9.9054 132.05-9.9054 198.23zm122.35-297.35c27.839-151.1 64.572-313.54 175.19-427.21 55.84-61.785 157.1-53.767 208.08 9.8872 102.01 114.56 138.31 270.27 164.96 417.32h-548.24zm493.42-438.59c217.73 63.512 402.33 229.22 489.39 438.59h-334.52c-25.103-153.06-64.849-309.74-154.87-438.59zm-927.67 438.59c87.019-209.4 271.58-375.2 489.39-438.59-90.021 129.01-129.77 285.37-154.87 438.59h-334.52z" fill="#5f6368" stroke-width="3.0974"/>
  </g>
 </g>
</svg>
