<?xml version="1.0" encoding="UTF-8"?>
<!-- Created with Inkscape (http://www.inkscape.org/) -->
<svg width="32" height="32" version="1.1" viewBox="0 0 8.4667 8.4667" xmlns="http://www.w3.org/2000/svg" xmlns:cc="http://creativecommons.org/ns#" xmlns:dc="http://purl.org/dc/elements/1.1/" xmlns:rdf="http://www.w3.org/1999/02/22-rdf-syntax-ns#">
 <metadata>
  <rdf:RDF>
   <cc:Work rdf:about="">
    <dc:format>image/svg+xml</dc:format>
    <dc:type rdf:resource="http://purl.org/dc/dcmitype/StillImage"/>
    <dc:title/>
   </cc:Work>
  </rdf:RDF>
 </metadata>
 <g transform="translate(0 -288.53)">
  <g transform="matrix(.0055122 0 0 -.0055122 1.38 296.29)">
   <g transform="matrix(90.006 0 0 -90.006 -569811 26544)" data-name="Gruppe 8691">
    <path d="m6344.5 287.8h-1.5999v-1.5999c0-0.29331-0.24-0.53331-0.5333-0.53331h-1.5999v-1.5999c0-0.29331-0.24-0.53328-0.5333-0.53328h-7.4661c-0.2933 0-0.5333 0.23997-0.5333 0.53328v1.5999h-1.5999c-0.2933 0-0.5333 0.24-0.5333 0.53331v1.5999h-1.5999c-0.2933 0-0.5333 0.23998-0.5333 0.53329v7.4662c0 0.29331 0.24 0.53329 0.5333 0.53329h2.6665v-4.2664h1.0666v4.2664h2.1332v-4.2664h1.0666v4.2664h2.1331v-4.2664h1.0666v4.2664h2.1332v-4.2664h1.0666v4.2664h2.6665c0.2933 0 0.5333-0.23998 0.5333-0.53329v-7.4662c0-0.29331-0.24-0.53329-0.5333-0.53329z" fill="#5f6368" stroke-width=".033331"/>
   </g>
  </g>
 </g>
</svg>
