<?xml version="1.0" encoding="UTF-8"?>
<!-- Created with Inkscape (http://www.inkscape.org/) -->
<svg width="32" height="32" version="1.1" viewBox="0 0 8.4667 8.4667" xmlns="http://www.w3.org/2000/svg" xmlns:cc="http://creativecommons.org/ns#" xmlns:dc="http://purl.org/dc/elements/1.1/" xmlns:rdf="http://www.w3.org/1999/02/22-rdf-syntax-ns#">
 <metadata>
  <rdf:RDF>
   <cc:Work rdf:about="">
    <dc:format>image/svg+xml</dc:format>
    <dc:type rdf:resource="http://purl.org/dc/dcmitype/StillImage"/>
    <dc:title/>
   </cc:Work>
  </rdf:RDF>
 </metadata>
 <g transform="translate(0 -288.53)">
  <g transform="matrix(.0055122 0 0 -.0055122 1.38 296.29)">
   <g transform="matrix(181.42 0 0 -181.42 -26131 15624)" fill="#5f6368">
    <path d="m146.86 78.363c-0.77905 0-1.4442 0.27562-1.9954 0.82684-0.55121 0.55121-0.82683 1.2164-0.82683 1.9954 0 0.40055 0.0607 0.72943 0.18195 0.98666l2.0119 4.2664c0.0551 0.12127 0.14053 0.21682 0.25629 0.28664 0.11576 0.0698 0.23984 0.1047 0.37213 0.1047s0.25629-0.0349 0.37205-0.1047c0.11575-0.0698 0.20298-0.16537 0.26177-0.28664l2.0064-4.2664c0.12127-0.25723 0.18195-0.58611 0.18195-0.98666 0-0.77905-0.27562-1.4442-0.82683-1.9954-0.55122-0.55122-1.2163-0.82684-1.9954-0.82684zm-0.0187 0.55367c0.14443-2e-3 0.28896 9e-3 0.43142 0.0319 0.37386 0.0604 0.73407 0.21325 1.0312 0.4498 0.4621 0.35621 0.80396 0.88018 0.89477 1.4604 0.0603 0.36313 0.0485 0.7418-0.0605 1.0947-0.093 0.26233-0.23425 0.50483-0.3456 0.75981-0.50681 1.0737-1.0054 2.1513-1.5201 3.2212-0.0888 0.13246-0.24892 0.2117-0.40714 0.20806-0.20901 2e-3 -0.40037-0.15407-0.4582-0.35167-0.59527-1.2719-1.2063-2.5365-1.79-3.8137-0.13082-0.39055-0.12434-0.81286-0.0517-1.214 0.1702-0.79856 0.79277-1.4772 1.5657-1.7324 0.22918-0.0744 0.46945-0.11149 0.71016-0.11409z" stroke-width=".0055121"/>
    <path d="m146.89 79.621c-0.26974-3e-3 -0.5404 0.0599-0.77872 0.18746-0.38138 0.1995-0.67438 0.55833-0.79456 0.9715-0.12293 0.40813-0.0731 0.86366 0.13376 1.2362 0.18296 0.33706 0.49143 0.60161 0.85023 0.73581 0.17572 0.0662 0.36315 0.10178 0.55102 0.10256 0.57539 0.0107 1.1432-0.31524 1.4223-0.81888 0.24848-0.43291 0.27919-0.98298 0.0777-1.44-0.18022-0.42101-0.54788-0.75636-0.98427-0.8958-0.15402-0.0507-0.31556-0.0768-0.47741-0.0788zm-0.0489 0.4209c0.32838 0 0.60877 0.11615 0.84111 0.34849 0.23235 0.23235 0.34849 0.51273 0.34849 0.84112 0 0.32838-0.11614 0.60876-0.34849 0.84111-0.23234 0.23235-0.51273 0.34849-0.84111 0.34849s-0.60877-0.11614-0.84111-0.34849c-0.23235-0.23235-0.34849-0.51273-0.34849-0.84111 0-0.32839 0.11614-0.60877 0.34849-0.84112 0.23234-0.23234 0.51273-0.34849 0.84111-0.34849z" stroke-width=".0046469"/>
   </g>
  </g>
 </g>
</svg>
