<?xml version="1.0" encoding="UTF-8"?>
<!-- Created with Inkscape (http://www.inkscape.org/) -->
<svg width="32" height="32" version="1.1" viewBox="0 0 8.4667 8.4667" xmlns="http://www.w3.org/2000/svg" xmlns:cc="http://creativecommons.org/ns#" xmlns:dc="http://purl.org/dc/elements/1.1/" xmlns:rdf="http://www.w3.org/1999/02/22-rdf-syntax-ns#">
 <metadata>
  <rdf:RDF>
   <cc:Work rdf:about="">
    <dc:format>image/svg+xml</dc:format>
    <dc:type rdf:resource="http://purl.org/dc/dcmitype/StillImage"/>
    <dc:title/>
   </cc:Work>
  </rdf:RDF>
 </metadata>
 <g transform="translate(0 -288.53)">
  <g transform="matrix(.47045 0 0 .47045 -2971.8 108.39)" data-name="Gruppe 8694">
   <g id="outline-business-24px" transform="matrix(.89985 0 0 .89985 6315.2 374.83)">
    <path d="m12 15v-4h-10v18h20v-14zm-6 12h-2v-2h2zm0-4h-2v-2h2zm0-4h-2v-2h2zm0-4h-2v-2h2zm4 12h-2v-2h2zm0-4h-2v-2h2zm0-4h-2v-2h2zm0-4h-2v-2h2zm10 12h-8v-2h2v-2h-2v-2h2v-2h-2v-2h8zm-2-8h-2v2h2zm0 4h-2v2h2z" fill="#5f6368" data-name="Pfad 2115"/>
   </g>
  </g>
 </g>
</svg>
