<?xml version="1.0" encoding="UTF-8"?>
<!-- Created with Inkscape (http://www.inkscape.org/) -->
<svg width="32" height="32" version="1.1" viewBox="0 0 8.4667 8.4667" xmlns="http://www.w3.org/2000/svg" xmlns:cc="http://creativecommons.org/ns#" xmlns:dc="http://purl.org/dc/elements/1.1/" xmlns:rdf="http://www.w3.org/1999/02/22-rdf-syntax-ns#" xmlns:xlink="http://www.w3.org/1999/xlink">
 <metadata>
  <rdf:RDF>
   <cc:Work rdf:about="">
    <dc:format>image/svg+xml</dc:format>
    <dc:type rdf:resource="http://purl.org/dc/dcmitype/StillImage"/>
    <dc:title/>
   </cc:Work>
  </rdf:RDF>
 </metadata>
 <path d="m5.6092 1.7639a0.1718 0.1718 0 0 0-0.14464 0.081139l-0.024694 0.052917-1.8274 4.1099a0.69497 0.69497 0 0 0-0.091723 0.33867 0.70803 0.70803 0 0 0 1.4005 0.14817l0.00353-0.010583 0.86078-4.5438a0.17639 0.17639 0 0 0-0.17639-0.17639zm-5.2564 1.4111 0.70556 0.70556a4.4669 4.4669 0 0 1 3.7148-1.2771l0.41981-0.94545a5.4758 5.4758 0 0 0-4.8401 1.517zm7.0556 0.70556 0.70556-0.70556a5.4212 5.4212 0 0 0-1.972-1.2594l-0.18697 0.99484a4.451 4.451 0 0 1 1.4535 0.97014zm-1.4111 1.4111 0.70556-0.70556a3.4851 3.4851 0 0 0-0.93839-0.66675l-0.19403 1.0301a2.558 2.558 0 0 1 0.42686 0.3422zm-4.2334-0.70556 0.70556 0.70556a2.5047 2.5047 0 0 1 1.4217-0.70556l0.45156-1.016a3.4851 3.4851 0 0 0-2.5788 1.016z" fill="#5f6368" stroke-width=".35278" data-name="Pfad 2143"/>
</svg>
