<?xml version="1.0" encoding="UTF-8"?>
<!-- Created with Inkscape (http://www.inkscape.org/) -->
<svg width="32" height="32" version="1.1" viewBox="0 0 8.4667 8.4667" xmlns="http://www.w3.org/2000/svg" xmlns:cc="http://creativecommons.org/ns#" xmlns:dc="http://purl.org/dc/elements/1.1/" xmlns:rdf="http://www.w3.org/1999/02/22-rdf-syntax-ns#">
 <metadata>
  <rdf:RDF>
   <cc:Work rdf:about="">
    <dc:format>image/svg+xml</dc:format>
    <dc:type rdf:resource="http://purl.org/dc/dcmitype/StillImage"/>
    <dc:title/>
   </cc:Work>
  </rdf:RDF>
 </metadata>
 <g transform="translate(0 -288.53)">
  <g transform="matrix(.47045 0 0 .47045 -2971.8 108.39)" data-name="Gruppe 8694">
   <g id="outline-assessment-24px" transform="matrix(.99983 0 0 .99983 6302 379.93)">
    <path d="m31 3h-14a2.006 2.006 0 0 0-2 2v14a2.006 2.006 0 0 0 2 2h14a2.006 2.006 0 0 0 2-2v-14a2.006 2.006 0 0 0-2-2zm0 16h-14v-14h14zm-12-9h2v7h-2zm4-3h2v10h-2zm4 6h2v4h-2z" fill="#5f6368" data-name="Pfad 2083"/>
   </g>
  </g>
 </g>
</svg>
