<?xml version="1.0" encoding="UTF-8"?>
<!-- Created with Inkscape (http://www.inkscape.org/) -->
<svg width="32" height="32" version="1.1" viewBox="0 0 8.4667 8.4667" xmlns="http://www.w3.org/2000/svg" xmlns:cc="http://creativecommons.org/ns#" xmlns:dc="http://purl.org/dc/elements/1.1/" xmlns:rdf="http://www.w3.org/1999/02/22-rdf-syntax-ns#">
 <metadata>
  <rdf:RDF>
   <cc:Work rdf:about="">
    <dc:format>image/svg+xml</dc:format>
    <dc:type rdf:resource="http://purl.org/dc/dcmitype/StillImage"/>
    <dc:title/>
   </cc:Work>
  </rdf:RDF>
 </metadata>
 <g transform="translate(0 -288.53)">
  <g transform="matrix(1.7519 0 0 1.7519 -143.44 249.5)" fill="#5f6368" stroke-width=".042292">
   <path d="m84.29 25.979a1.1389 1.1389 0 0 1 0.76853 0.29693 0.071896 0.071896 0 0 0 0.10149 0l0.26902-0.27248a0.076125 0.076125 0 0 0 0-0.1048 1.6671 1.6671 0 0 0-2.2744 0 0.072869 0.072869 0 0 0-0.0036 0.1048l0.26902 0.27248a0.071896 0.071896 0 0 0 0.10149 0 1.1389 1.1389 0 0 1 0.76832-0.29693z"/>
   <path d="m84.807 26.625a0.076125 0.076125 0 0 0 0-0.1048l-0.0036-0.0036a0.79813 0.79813 0 0 0-1.0307 0 0.072784 0.072784 0 0 0-0.0034 0.1048l0.0036 0.0036 0.46466 0.46817a0.071896 0.071896 0 0 0 0.1015 0z"/>
   <path d="m84.29 25.091a2.0095 2.0095 0 0 1 1.3872 0.5555 0.071896 0.071896 0 0 0 0.1015 0l0.26902-0.27249a0.076125 0.076125 0 0 0 0-0.1048 2.5431 2.5431 0 0 0-3.5144 0 0.072784 0.072784 0 0 0 0 0.1048l0.26902 0.27249a0.071896 0.071896 0 0 0 0.10149 0 2.0095 2.0095 0 0 1 1.3862-0.5555z"/>
   <path d="m82.173 25.035a0.067667 0.067667 0 0 0 0.09782 0 2.9027 2.9027 0 0 1 4.0389 0 0.067667 0.067667 0 0 0 0.09782 0l0.27249-0.27248a0.067667 0.067667 0 0 0 0-0.09782 3.4256 3.4256 0 0 0-4.7793-4.3e-5 0.067667 0.067667 0 0 0 0 0.09782z" opacity=".4" data-name="Pfad 5806"/>
  </g>
 </g>
</svg>
