<?xml version="1.0" encoding="UTF-8"?>
<!-- Created with Inkscape (http://www.inkscape.org/) -->
<svg width="32" height="32" version="1.1" viewBox="0 0 8.4667 8.4667" xmlns="http://www.w3.org/2000/svg" xmlns:cc="http://creativecommons.org/ns#" xmlns:dc="http://purl.org/dc/elements/1.1/" xmlns:rdf="http://www.w3.org/1999/02/22-rdf-syntax-ns#">
 <metadata>
  <rdf:RDF>
   <cc:Work rdf:about="">
    <dc:format>image/svg+xml</dc:format>
    <dc:type rdf:resource="http://purl.org/dc/dcmitype/StillImage"/>
    <dc:title/>
   </cc:Work>
  </rdf:RDF>
 </metadata>
 <g transform="translate(0 -288.53)">
  <g transform="matrix(.0055122 0 0 -.0055122 1.38 296.29)">
   <g transform="matrix(90.006 0 0 -90.006 -569811 26544)" fill="#5f6368" stroke-width=".14934" data-name="Gruppe 8691">
    <path d="m6336.5 292.32a4.0215 4.0215 0 0 1 2.7137 1.0485 0.25387 0.25387 0 0 0 0.3584 0l0.9499-0.96217a0.2688 0.2688 0 0 0 0-0.37006 5.8868 5.8868 0 0 0-8.0309 0 0.25731 0.25731 0 0 0-0.013 0.37006l0.9499 0.96217a0.25387 0.25387 0 0 0 0.3584 0 4.0215 4.0215 0 0 1 2.7129-1.0485z" opacity=".2"/>
    <path d="m6338.3 294.61a0.2688 0.2688 0 0 0 0-0.37007l-0.013-0.0127a2.8183 2.8183 0 0 0-3.6393 0 0.25701 0.25701 0 0 0-0.012 0.37006l0.013 0.0127 1.6408 1.6531a0.25387 0.25387 0 0 0 0.3584 0z" opacity=".2"/>
    <path d="m6336.5 289.19a7.0955 7.0955 0 0 1 4.8982 1.9615 0.25387 0.25387 0 0 0 0.3584 0l0.9499-0.96216a0.2688 0.2688 0 0 0 0-0.37006 8.9798 8.9798 0 0 0-12.41 0 0.25701 0.25701 0 0 0 0 0.37006l0.95 0.96216a0.25387 0.25387 0 0 0 0.3583 0 7.0955 7.0955 0 0 1 4.895-1.9615z" opacity=".2"/>
    <path d="m6329 288.99a0.23894 0.23894 0 0 0 0.3454 0 10.25 10.25 0 0 1 14.262 0 0.23894 0.23894 0 0 0 0.3454 0l0.9622-0.96216a0.23894 0.23894 0 0 0 0-0.34541 12.096 12.096 0 0 0-16.876-1.5e-4 0.23894 0.23894 0 0 0 0 0.3454z" opacity=".2" data-name="Pfad 5806"/>
   </g>
  </g>
 </g>
</svg>
