<?xml version="1.0" encoding="UTF-8"?>
<svg version="1.1" viewBox="0 0 20 20" xmlns="http://www.w3.org/2000/svg" xmlns:cc="http://creativecommons.org/ns#" xmlns:dc="http://purl.org/dc/elements/1.1/" xmlns:rdf="http://www.w3.org/1999/02/22-rdf-syntax-ns#">
 <metadata>
  <rdf:RDF>
   <cc:Work rdf:about="">
    <dc:format>image/svg+xml</dc:format>
    <dc:type rdf:resource="http://purl.org/dc/dcmitype/StillImage"/>
    <dc:title/>
   </cc:Work>
  </rdf:RDF>
 </metadata>
 <path d="m18.739 9.9893q0.0199 2.2291-1.0151 4.1797-1.0151 1.8909-2.8063 3.0851-1.851 1.234-4.0801 1.4131-2.2092 0.17913-4.2195-0.7165-1.9703-0.89564-3.284-2.5873-1.3534-1.7515-1.6917-3.9607l-1.5724-0.079612 2.3087-3.5229 1.8909 3.7617-1.4927-0.099518q0.33835 1.6719 1.3335 3.0254 0.99518 1.3335 2.468 2.1296 1.4728 0.79612 3.1645 0.87574 1.7116 0.07961 3.2442-0.55729 1.5525-0.6369 2.6868-1.8709 1.1345-1.234 1.6321-2.8661 0.49758-1.632 0.25873-3.284-0.23883-1.652-1.1743-3.0452-0.91554-1.4131-2.3685-2.2889-1.453-0.87574-3.1248-1.0349-1.652-0.17913-3.2442 0.37815-1.5724 0.53739-2.7865 1.7316l-0.77622-0.79612q1.2141-1.2141 2.7865-1.851 1.5922-0.6369 3.284-0.6369 1.7116 0 3.3039 0.67671 1.5922 0.6568 2.7865 1.8709 1.1942 1.1942 1.8311 2.7865 0.6568 1.5724 0.6568 3.284zm-11.165 4.0005 6.568-4.0005-6.568-4.0005z" stroke-width=".49759"/>
</svg>
