<?xml version="1.0" encoding="UTF-8"?>
<svg version="1.1" viewBox="0 0 20 20" xmlns="http://www.w3.org/2000/svg" xmlns:cc="http://creativecommons.org/ns#" xmlns:dc="http://purl.org/dc/elements/1.1/" xmlns:rdf="http://www.w3.org/1999/02/22-rdf-syntax-ns#">
 <metadata>
  <rdf:RDF>
   <cc:Work rdf:about="">
    <dc:format>image/svg+xml</dc:format>
    <dc:type rdf:resource="http://purl.org/dc/dcmitype/StillImage"/>
    <dc:title/>
   </cc:Work>
  </rdf:RDF>
 </metadata>
 <path d="m7.0148 5.3305 7.6546 4.6695-7.6546 4.6695zm2.9852-4.3284q2.4521 0 4.5415 1.2367 2.0256 1.194 3.2197 3.2197 1.2367 2.0896 1.2367 4.5415 0 2.4521-1.2367 4.5415-1.194 2.0256-3.2197 3.2197-2.0896 1.2367-4.5415 1.2367-2.4521 0-4.5415-1.2367-2.0256-1.194-3.2197-3.2197-1.2367-2.0896-1.2367-4.5415 0-2.4521 1.2367-4.5415 1.194-2.0256 3.2197-3.2197 2.0896-1.2367 4.5415-1.2367zm0-1.0021q-2.708 0-5.0533 1.3646-2.2601 1.322-3.5821 3.5821-1.3646 2.3455-1.3646 5.0533t1.3646 5.0533q1.322 2.2601 3.5821 3.5821 2.3455 1.3646 5.0533 1.3646 2.7078 0 5.0533-1.3646 2.2601-1.322 3.5821-3.5821 1.3646-2.3455 1.3646-5.0533t-1.3646-5.0533q-1.322-2.2601-3.5821-3.5821-2.3455-1.3646-5.0533-1.3646z" stroke-width=".53305"/>
</svg>
