<?xml version="1.0" encoding="UTF-8"?>
<!-- Created with Inkscape (http://www.inkscape.org/) -->
<svg width="32" height="32" version="1.1" viewBox="0 0 8.4667 8.4667" xmlns="http://www.w3.org/2000/svg" xmlns:cc="http://creativecommons.org/ns#" xmlns:dc="http://purl.org/dc/elements/1.1/" xmlns:rdf="http://www.w3.org/1999/02/22-rdf-syntax-ns#">
 <metadata>
  <rdf:RDF>
   <cc:Work rdf:about="">
    <dc:format>image/svg+xml</dc:format>
    <dc:type rdf:resource="http://purl.org/dc/dcmitype/StillImage"/>
    <dc:title/>
   </cc:Work>
  </rdf:RDF>
 </metadata>
 <g transform="translate(0 -288.53)" fill="#5f6368" stroke-width=".49613">
  <path d="m5.6231 297h-0.49613a0.49613 0.49613 0 0 1-0.49613-0.49613v-2.6458a0.49613 0.49613 0 0 1 0.49613-0.49613h0.49613a0.49613 0.49613 0 0 1 0.49613 0.49613v2.6458a0.49613 0.49613 0 0 1-0.49613 0.49613z" opacity=".4"/>
  <path d="m3.3077 297h-0.49613a0.49613 0.49613 0 0 1-0.49613-0.49613v-1.9845a0.49613 0.49613 0 0 1 0.49613-0.49613h0.49613a0.49613 0.49613 0 0 1 0.49613 0.49613v1.9845a0.49613 0.49613 0 0 1-0.49662 0.49613z"/>
  <path d="m0.99226 297h-0.49613a0.49613 0.49613 0 0 1-0.49613-0.49613v-0.99225a0.49613 0.49613 0 0 1 0.49613-0.49613h0.49613a0.49613 0.49613 0 0 1 0.49613 0.49613v0.99225a0.49613 0.49613 0 0 1-0.49613 0.49613z"/>
  <path d="m7.4419 291.71h0.49613a0.49613 0.49613 0 0 1 0.49613 0.49613v4.2999a0.49613 0.49613 0 0 1-0.49613 0.49613h-0.49613a0.49613 0.49613 0 0 1-0.49613-0.49613v-4.2999a0.49613 0.49613 0 0 1 0.49613-0.49613z" opacity=".4" data-name="Cellular-Connection-path"/>
  <path d="m2.0837 292.37h-2.0837v-1.3892a0.69458 0.69458 0 0 1 0.69458-0.69458h0.69458v-0.69458h-1.3892v-0.69458h1.3892a0.69458 0.69458 0 0 1 0.69458 0.69458v0.69458a0.69458 0.69458 0 0 1-0.69458 0.69458h-0.69458v0.69458h1.3892m2.5466-1.3892h-1.0419v0.69458h0.34729v0.69458h-0.69458v-2.0837h1.3892v-0.69458h-1.3892a0.69458 0.69458 0 0 0-0.69458 0.69458v2.0837a0.69458 0.69458 0 0 0 0.69458 0.69458h0.69458a0.69458 0.69458 0 0 0 0.69458-0.69458"/>
 </g>
</svg>
