<?xml version="1.0" encoding="UTF-8"?>
<!-- Created with Inkscape (http://www.inkscape.org/) -->
<svg width="32" height="32" version="1.1" viewBox="0 0 8.4667 8.4667" xmlns="http://www.w3.org/2000/svg" xmlns:cc="http://creativecommons.org/ns#" xmlns:dc="http://purl.org/dc/elements/1.1/" xmlns:rdf="http://www.w3.org/1999/02/22-rdf-syntax-ns#">
 <metadata>
  <rdf:RDF>
   <cc:Work rdf:about="">
    <dc:format>image/svg+xml</dc:format>
    <dc:type rdf:resource="http://purl.org/dc/dcmitype/StillImage"/>
    <dc:title/>
   </cc:Work>
  </rdf:RDF>
 </metadata>
 <g transform="translate(0 -288.53)">
  <g transform="matrix(.49613 0 0 .49613 -3139.5 149.98)" fill="#5f6368" data-name="Gruppe 8691">
   <path transform="translate(6328 285.67)" d="m11.334 10.667h-1a1 1 0 0 1-1-1v-5.333a1 1 0 0 1 1-1h1a1 1 0 0 1 1 1v5.333a1 1 0 0 1-1 1zm-4.667 0h-1a1 1 0 0 1-1-1v-4a1 1 0 0 1 1-1h1a1 1 0 0 1 1 1v4a1 1 0 0 1-1.001 1zm-4.667 0h-1a1 1 0 0 1-1-1v-2a1 1 0 0 1 1-1h1a1 1 0 0 1 1 1v2a1 1 0 0 1-1 1z" data-name="Exclusion 6"/>
   <path transform="translate(6342 285.67)" d="m1 0h1a1 1 0 0 1 1 1v8.667a1 1 0 0 1-1 1h-1a1 1 0 0 1-1-1v-8.667a1 1 0 0 1 1-1z" data-name="Cellular-Connection-path"/>
   <path transform="translate(6326,275.5)" d="m6.2 11.5h-4.2v-2.8a1.4 1.4 0 0 1 1.4-1.4h1.4v-1.4h-2.8v-1.4h2.8a1.4 1.4 0 0 1 1.4 1.4v1.4a1.4 1.4 0 0 1-1.4 1.4h-1.4v1.4h2.8m5.133-2.8h-2.1v1.4h0.7v1.4h-1.4v-4.2h2.8v-1.4h-2.8a1.4 1.4 0 0 0-1.4 1.4v4.2a1.4 1.4 0 0 0 1.4 1.4h1.4a1.4 1.4 0 0 0 1.4-1.4"/>
  </g>
 </g>
</svg>
