<?xml version="1.0" encoding="UTF-8"?>
<!-- Created with Inkscape (http://www.inkscape.org/) -->
<svg width="32" height="32" version="1.1" viewBox="0 0 8.4667 8.4667" xmlns="http://www.w3.org/2000/svg" xmlns:cc="http://creativecommons.org/ns#" xmlns:dc="http://purl.org/dc/elements/1.1/" xmlns:rdf="http://www.w3.org/1999/02/22-rdf-syntax-ns#">
 <metadata>
  <rdf:RDF>
   <cc:Work rdf:about="">
    <dc:format>image/svg+xml</dc:format>
    <dc:type rdf:resource="http://purl.org/dc/dcmitype/StillImage"/>
    <dc:title/>
   </cc:Work>
  </rdf:RDF>
 </metadata>
 <g transform="translate(0 -288.53)">
  <g transform="matrix(.0055122 0 0 -.0055122 1.38 296.29)" fill="#5f6368" stroke-width="90.006">
   <path d="m127.67 838.13v94.507a94.147 94.147 0 0 1-94.507 94.507 94.147 94.147 0 0 1 94.507 94.506v94.507a126.01 126.01 0 0 1-126.01 126.01h-252.02v-126.01h252.02v-126.01h-126.01v-126.01h126.01v-126.01h-252.02v-126.01h252.02a126.01 126.01 0 0 1 126.01 126.01m462 0v252.02h-189.01v-126.01h63.005v-126.01h-126.01v378.03h252.02v126.01h-252.02a126.01 126.01 0 0 1-126.01-126.01v-378.03a126.01 126.01 0 0 1 126.01-126.01h126.01a126.01 126.01 0 0 1 126.01 126.01z"/>
   <path d="m769.78-128h-90.006a90.006 90.006 0 0 0-90.006 90.006v480a90.006 90.006 0 0 0 90.006 90.006h90.006a90.006 90.006 0 0 0 90.007-90.006v-480a90.006 90.006 0 0 0-90.007-90.006zm-420.06 0h-90.006a90.006 90.006 0 0 0-90.007 90.006v360.03a90.006 90.006 0 0 0 90.007 90.006h90.006a90.006 90.006 0 0 0 90.006-90.006v-360.03a90.006 90.006 0 0 0-90.096-90.006zm-420.06 0h-90.007a90.006 90.006 0 0 0-90.006 90.006v180.01a90.006 90.006 0 0 0 90.006 90.006h90.007a90.006 90.006 0 0 0 90.006-90.006v-180.01a90.006 90.006 0 0 0-90.006-90.006z" opacity=".7" data-name="Exclusion 6"/>
   <path d="m1099.7 832.1h90.007a90.006 90.006 0 0 0 90.006-90.006v-780.09a90.006 90.006 0 0 0-90.006-90.006h-90.007a90.006 90.006 0 0 0-90.006 90.006v780.09a90.006 90.006 0 0 0 90.006 90.006z" opacity=".7" data-name="Cellular-Connection-path"/>
  </g>
 </g>
</svg>
