<?xml version="1.0" encoding="UTF-8"?>
<!-- Created with Inkscape (http://www.inkscape.org/) -->
<svg width="32" height="32" version="1.1" viewBox="0 0 8.4667 8.4667" xmlns="http://www.w3.org/2000/svg" xmlns:cc="http://creativecommons.org/ns#" xmlns:dc="http://purl.org/dc/elements/1.1/" xmlns:rdf="http://www.w3.org/1999/02/22-rdf-syntax-ns#">
 <metadata>
  <rdf:RDF>
   <cc:Work rdf:about="">
    <dc:format>image/svg+xml</dc:format>
    <dc:type rdf:resource="http://purl.org/dc/dcmitype/StillImage"/>
    <dc:title/>
   </cc:Work>
  </rdf:RDF>
 </metadata>
 <g transform="translate(0 -288.53)">
  <g transform="matrix(.0055122 0 0 -.0055122 1.38 296.29)" fill="#5f6368">
   <path d="m-250.2 1342.1v-377.96h251.91v-252.09h126.04v630.04h-126.04v-252.09h-126.04v252.09zm587.85 0c-69.593-4e-4 -125.87-56.452-125.87-126.04v-377.96c0-69.592 56.276-126.04 125.87-126.04h126.04c69.592 0 126.04 56.452 126.04 126.04v251.91h-188.98v-126.04h62.934v-125.87h-126.04v377.96h252.09v126.04z" stroke-width="41.992"/>
   <path d="m769.78-128h-90.006a90.006 90.006 0 0 0-90.006 90.006v480a90.006 90.006 0 0 0 90.006 90.006h90.006a90.006 90.006 0 0 0 90.007-90.006v-480a90.006 90.006 0 0 0-90.007-90.006zm-420.06 0h-90.006a90.006 90.006 0 0 0-90.007 90.006v360.03a90.006 90.006 0 0 0 90.007 90.006h90.006a90.006 90.006 0 0 0 90.006-90.006v-360.03a90.006 90.006 0 0 0-90.096-90.006zm-420.06 0h-90.007a90.006 90.006 0 0 0-90.006 90.006v180.01a90.006 90.006 0 0 0 90.006 90.006h90.007a90.006 90.006 0 0 0 90.006-90.006v-180.01a90.006 90.006 0 0 0-90.006-90.006z" opacity=".7" stroke-width="90.006" data-name="Exclusion 6"/>
   <path d="m1099.7 832.1h90.007a90.006 90.006 0 0 0 90.006-90.006v-780.09a90.006 90.006 0 0 0-90.006-90.006h-90.007a90.006 90.006 0 0 0-90.006 90.006v780.09a90.006 90.006 0 0 0 90.006 90.006z" opacity=".7" stroke-width="90.006" data-name="Cellular-Connection-path"/>
  </g>
 </g>
</svg>
