<?xml version="1.0" encoding="UTF-8"?>
<!-- Created with Inkscape (http://www.inkscape.org/) -->
<svg width="32" height="32" version="1.1" viewBox="0 0 8.4667 8.4667" xmlns="http://www.w3.org/2000/svg" xmlns:cc="http://creativecommons.org/ns#" xmlns:dc="http://purl.org/dc/elements/1.1/" xmlns:rdf="http://www.w3.org/1999/02/22-rdf-syntax-ns#">
 <metadata>
  <rdf:RDF>
   <cc:Work rdf:about="">
    <dc:format>image/svg+xml</dc:format>
    <dc:type rdf:resource="http://purl.org/dc/dcmitype/StillImage"/>
    <dc:title/>
   </cc:Work>
  </rdf:RDF>
 </metadata>
 <g transform="translate(0 -288.53)">
  <g transform="matrix(.47045 0 0 .47045 -2971.8 108.39)" data-name="Gruppe 8694">
   <g id="outline-date_range-24px" transform="matrix(.89985 0 0 .89985 6315.3 390.13)">
    <path d="m7 1h2v2h-2zm14-5v14a2.006 2.006 0 0 1-2 2h-14a2 2 0 0 1-2-2l0.01-14a1.991 1.991 0 0 1 1.99-2h1v-2h2v2h8v-2h2v2h1a2.006 2.006 0 0 1 2 2zm-16 2h14v-2h-14zm14 12v-10h-14v10zm-4-7h2v-2h-2zm-4 0h2v-2h-2z" fill="#5f6368" data-name="Pfad 2108"/>
   </g>
  </g>
 </g>
</svg>
