<?xml version="1.0" encoding="UTF-8"?>
<!-- Created with Inkscape (http://www.inkscape.org/) -->
<svg width="32" height="32" version="1.1" viewBox="0 0 8.4667 8.4667" xmlns="http://www.w3.org/2000/svg" xmlns:cc="http://creativecommons.org/ns#" xmlns:dc="http://purl.org/dc/elements/1.1/" xmlns:rdf="http://www.w3.org/1999/02/22-rdf-syntax-ns#">
 <metadata>
  <rdf:RDF>
   <cc:Work rdf:about="">
    <dc:format>image/svg+xml</dc:format>
    <dc:type rdf:resource="http://purl.org/dc/dcmitype/StillImage"/>
    <dc:title/>
   </cc:Work>
  </rdf:RDF>
 </metadata>
 <g transform="translate(0 -288.53)">
  <g transform="matrix(.47045 0 0 .47045 -2971.8 108.39)" data-name="Gruppe 8694">
   <g transform="matrix(.99983 0 0 .99983 7410.8 -477.93)" data-name="Gruppe 9149">
    <path d="m-1088 861-5.64 1.9a0.5 0.5 0 0 0-0.36 0.48v15.12a0.5 0.5 0 0 0 0.5 0.5l0.16-0.03 5.34-2.07 6 2.1 5.64-1.9a0.5 0.5 0 0 0 0.36-0.48v-15.12a0.5 0.5 0 0 0-0.5-0.5l-0.16 0.03-5.34 2.07-6-2.1m-1 2.45v11.7l-3 1.16v-11.85l3-1.01m2 0.02 4 1.4v11.66l-4-1.4v-11.66m9 0.23v11.84l-3 1.01v-11.69l3-1.16" fill="#5f6368"/>
   </g>
  </g>
 </g>
</svg>
