<?xml version="1.0" encoding="UTF-8"?>
<!-- Created with Inkscape (http://www.inkscape.org/) -->
<svg width="32" height="32" version="1.1" viewBox="0 0 8.4667 8.4667" xmlns="http://www.w3.org/2000/svg" xmlns:cc="http://creativecommons.org/ns#" xmlns:dc="http://purl.org/dc/elements/1.1/" xmlns:rdf="http://www.w3.org/1999/02/22-rdf-syntax-ns#">
 <metadata>
  <rdf:RDF>
   <cc:Work rdf:about="">
    <dc:format>image/svg+xml</dc:format>
    <dc:type rdf:resource="http://purl.org/dc/dcmitype/StillImage"/>
    <dc:title/>
   </cc:Work>
  </rdf:RDF>
 </metadata>
 <g transform="translate(0 -288.53)">
  <g transform="matrix(.47045 0 0 .47045 -2971.8 108.39)" data-name="Gruppe 8694">
   <g transform="matrix(1.0586 0 0 1.0586 -341.9 -23.859)" data-name="Gruppe 8696">
    <g transform="translate(0 -.667)" data-name="Gruppe 8695">
     <path transform="translate(6290 388.67)" d="m11.334 10.667h-1a1 1 0 0 1-1-1v-5.333a1 1 0 0 1 1-1h1a1 1 0 0 1 1 1v5.333a1 1 0 0 1-1 1zm-4.667 0h-1a1 1 0 0 1-1-1v-4a1 1 0 0 1 1-1h1a1 1 0 0 1 1 1v4a1 1 0 0 1-1.001 1zm-4.667 0h-1a1 1 0 0 1-1-1v-2a1 1 0 0 1 1-1h1a1 1 0 0 1 1 1v2a1 1 0 0 1-1 1z" fill="#5f6368" data-name="Exclusion 6"/>
     <path transform="translate(6304 388.67)" d="m1 0h1a1 1 0 0 1 1 1v8.667a1 1 0 0 1-1 1h-1a1 1 0 0 1-1-1v-8.667a1 1 0 0 1 1-1z" fill="#5f6368" opacity=".4" data-name="Cellular-Connection-path"/>
     <line transform="translate(6293.2 389.56)" x2="10.684" y2="10.684" fill="none" stroke="#fff" stroke-linecap="round" stroke-width="3" data-name="Linie 128"/>
     <line transform="translate(6292.6 390.22)" x2="10.684" y2="10.684" fill="none" stroke="#5f6368" stroke-linecap="round" stroke-width="2" data-name="Linie 129"/>
    </g>
   </g>
  </g>
 </g>
</svg>
