<?xml version="1.0" encoding="UTF-8"?>
<!-- Created with Inkscape (http://www.inkscape.org/) -->
<svg width="32" height="32" version="1.1" viewBox="0 0 8.4667 8.4667" xmlns="http://www.w3.org/2000/svg" xmlns:cc="http://creativecommons.org/ns#" xmlns:dc="http://purl.org/dc/elements/1.1/" xmlns:rdf="http://www.w3.org/1999/02/22-rdf-syntax-ns#">
 <metadata>
  <rdf:RDF>
   <cc:Work rdf:about="">
    <dc:format>image/svg+xml</dc:format>
    <dc:type rdf:resource="http://purl.org/dc/dcmitype/StillImage"/>
    <dc:title/>
   </cc:Work>
  </rdf:RDF>
 </metadata>
 <g transform="translate(0 -288.53)">
  <g transform="matrix(.0055122 0 0 -.0055122 1.38 296.29)">
   <g transform="matrix(90.006 0 0 -90.006 -569811 26544)" data-name="Gruppe 8691">
    <g transform="translate(2.2455e-5 -4.32e-6)" fill="#5f6368" data-name="Gruppe 8691">
     <path transform="translate(6328 285.67)" d="m11.334 10.667h-1a1 1 0 0 1-1-1v-5.333a1 1 0 0 1 1-1h1a1 1 0 0 1 1 1v5.333a1 1 0 0 1-1 1zm-4.667 0h-1a1 1 0 0 1-1-1v-4a1 1 0 0 1 1-1h1a1 1 0 0 1 1 1v4a1 1 0 0 1-1.001 1zm-4.667 0h-1a1 1 0 0 1-1-1v-2a1 1 0 0 1 1-1h1a1 1 0 0 1 1 1v2a1 1 0 0 1-1 1z" data-name="Exclusion 6"/>
     <path transform="translate(6342 285.67)" d="m1 0h1a1 1 0 0 1 1 1v8.667a1 1 0 0 1-1 1h-1a1 1 0 0 1-1-1v-8.667a1 1 0 0 1 1-1z" data-name="Cellular-Connection-path"/>
    </g>
   </g>
  </g>
 </g>
</svg>
