<?xml version="1.0" encoding="UTF-8"?>
<!-- Created with Inkscape (http://www.inkscape.org/) -->
<svg width="32" height="32" version="1.1" viewBox="0 0 8.4667 8.4667" xmlns="http://www.w3.org/2000/svg" xmlns:cc="http://creativecommons.org/ns#" xmlns:dc="http://purl.org/dc/elements/1.1/" xmlns:rdf="http://www.w3.org/1999/02/22-rdf-syntax-ns#" xmlns:xlink="http://www.w3.org/1999/xlink">
 <metadata>
  <rdf:RDF>
   <cc:Work rdf:about="">
    <dc:format>image/svg+xml</dc:format>
    <dc:type rdf:resource="http://purl.org/dc/dcmitype/StillImage"/>
    <dc:title/>
   </cc:Work>
  </rdf:RDF>
 </metadata>
 <g id="outline-insert_photo-24px" transform="scale(.35278)">
  <g id="outline-music_note-24px">
   <g id="outline-phone-24px" transform="matrix(1 0 0 1 5.5251e-5 -1.3229e-8)">
    <path id="phone-voip" d="m13 16v2h1a1 1 0 0 1 1 1h7v2h-7a1 1 0 0 1-1 1h-4a1 1 0 0 1-1-1h-7v-2h7a1 1 0 0 1 1-1h1v-2h2m10.7-9.33a0.982 0.982 0 0 1 0.3 0.7 1 1 0 0 1-0.29 0.71l-2.48 2.48a1.01 1.01 0 0 1-0.73 0.29 0.97 0.97 0 0 1-0.68-0.28 12.249 12.249 0 0 0-2.67-1.85 1.008 1.008 0 0 1-0.56-0.9v-3.1a14.9 14.9 0 0 0-4.59-0.72 14.624 14.624 0 0 0-4.6 0.73v3.1a1 1 0 0 1-0.56 0.9 11.419 11.419 0 0 0-2.66 1.85 1.014 1.014 0 0 1-1.41-0.01l-2.48-2.48a1.014 1.014 0 0 1 0-1.42 17 17 0 0 1 23.41 0m-12.7 2.33v5h-1v-5h1m1 0h3v3h-2v2h-1v-5m2 2v-1h-1v1z" fill="#5f6368"/>
   </g>
  </g>
 </g>
</svg>
