<?xml version="1.0" encoding="UTF-8"?>
<!-- Created with Inkscape (http://www.inkscape.org/) -->
<svg width="32" height="32" version="1.1" viewBox="0 0 8.4667 8.4667" xmlns="http://www.w3.org/2000/svg" xmlns:cc="http://creativecommons.org/ns#" xmlns:dc="http://purl.org/dc/elements/1.1/" xmlns:rdf="http://www.w3.org/1999/02/22-rdf-syntax-ns#">
 <metadata>
  <rdf:RDF>
   <cc:Work rdf:about="">
    <dc:format>image/svg+xml</dc:format>
    <dc:type rdf:resource="http://purl.org/dc/dcmitype/StillImage"/>
    <dc:title/>
   </cc:Work>
  </rdf:RDF>
 </metadata>
 <g transform="translate(0 -288.53)">
  <g transform="matrix(.0055122 0 0 -.0055122 1.38 296.29)">
   <g transform="matrix(320.93 0 0 -320.93 -22248 6690.7)" fill="#5f6368" stroke-width=".26458">
    <path d="m70.815 19.011a2.2328 2.2328 0 0 0-1.4113 0.59531 0.10054 0.10054 0 0 0-0.0011 0.14314l0.35967 0.3638a0.096573 0.096573 0 0 0 0.13488 0.0021 1.5293 1.5293 0 0 1 2.0536 0 0.096308 0.096308 0 0 0 0.06666 0.02635 0.096573 0.096573 0 0 0 0.06925-0.02842l0.35967-0.3638a0.10054 0.10054 0 0 0 0.02946-0.07183 0.10186 0.10186 0 0 0-0.03101-0.07131 2.2328 2.2328 0 0 0-1.6299-0.59531z" opacity=".7"/>
    <path d="m70.924 18.536a2.6945 2.6945 0 0 1 1.8563 0.74083 0.096044 0.096044 0 0 0 0.1352 0l0.36063-0.36406a0.10028 0.10028 0 0 0 0-0.14208 3.3983 3.3983 0 0 0-4.7027 0 0.10028 0.10028 0 0 0 0 0.14208l0.35904 0.3638a0.096044 0.096044 0 0 0 0.1352 0 2.6945 2.6945 0 0 1 1.8563-0.74057z" opacity=".7" data-name="Wifi-path"/>
    <path d="m70.912 20.194a1.0668 1.0668 0 0 0-0.67696 0.25166 0.097631 0.097631 0 0 0-0.0041 0.14263l0.6227 0.6289a0.097896 0.097896 0 0 0 0.06924 0.0289 0.096308 0.096308 0 0 0 0.06925-0.0289l0.62374-0.6289a0.097631 0.097631 0 0 0-0.0031-0.14263 1.0668 1.0668 0 0 0-0.68006-0.25166z" opacity=".7"/>
   </g>
  </g>
 </g>
</svg>
