<?xml version="1.0" encoding="UTF-8"?>
<!-- Created with Inkscape (http://www.inkscape.org/) -->
<svg width="32" height="32" version="1.1" viewBox="0 0 8.4667 8.4667" xmlns="http://www.w3.org/2000/svg" xmlns:cc="http://creativecommons.org/ns#" xmlns:dc="http://purl.org/dc/elements/1.1/" xmlns:rdf="http://www.w3.org/1999/02/22-rdf-syntax-ns#">
 <metadata>
  <rdf:RDF>
   <cc:Work rdf:about="">
    <dc:format>image/svg+xml</dc:format>
    <dc:type rdf:resource="http://purl.org/dc/dcmitype/StillImage"/>
    <dc:title/>
   </cc:Work>
  </rdf:RDF>
 </metadata>
 <g transform="translate(0 -288.53)">
  <g transform="matrix(.0055122 0 0 -.0055122 1.38 296.29)" fill="#5f6368" stroke-width="13.441">
   <path d="m515.71 232.86a361.96 361.96 0 0 0 244.25-94.37 22.85 22.85 0 0 1 32.257 0l85.5 86.601a24.194 24.194 0 0 1 0 33.308 529.85 529.85 0 0 1-722.84 0 23.159 23.159 0 0 1-1.1441-33.308l85.499-86.601a22.85 22.85 0 0 1 32.257 0 361.96 361.96 0 0 0 244.19 94.37z" opacity=".7"/>
   <path d="m680.06 27.457a24.194 24.194 0 0 1 0 33.308l-1.1443 1.1443a253.66 253.66 0 0 1-327.56 0 23.132 23.132 0 0 1-1.0805-33.308l1.1444-1.1443 147.68-148.79a22.85 22.85 0 0 1 32.257 0z" opacity=".7"/>
   <path d="m515.71 514.91a638.64 638.64 0 0 0 440.87-176.55 22.85 22.85 0 0 1 32.257 0l85.499 86.601a24.194 24.194 0 0 1 0 33.308 808.24 808.24 0 0 1-1117 0 23.132 23.132 0 0 1 0-33.308l85.499-86.601a22.85 22.85 0 0 1 32.257 0 638.64 638.64 0 0 0 440.57 176.55z" opacity=".7"/>
   <path d="m-157.16 532.67a21.506 21.506 0 0 1 31.089 0 922.55 922.55 0 0 0 1283.6 0 21.506 21.506 0 0 1 31.089 0l86.601 86.601a21.506 21.506 0 0 1 0 31.089 1088.7 1088.7 0 0 1-1519 0.014 21.506 21.506 0 0 1 0-31.089z" opacity=".7" data-name="Pfad 5806"/>
  </g>
 </g>
</svg>
