<?xml version="1.0" encoding="UTF-8"?>
<!-- Created with Inkscape (http://www.inkscape.org/) -->
<svg width="32" height="32" version="1.1" viewBox="0 0 8.4667 8.4667" xmlns="http://www.w3.org/2000/svg" xmlns:cc="http://creativecommons.org/ns#" xmlns:dc="http://purl.org/dc/elements/1.1/" xmlns:rdf="http://www.w3.org/1999/02/22-rdf-syntax-ns#">
 <metadata>
  <rdf:RDF>
   <cc:Work rdf:about="">
    <dc:format>image/svg+xml</dc:format>
    <dc:type rdf:resource="http://purl.org/dc/dcmitype/StillImage"/>
    <dc:title/>
   </cc:Work>
  </rdf:RDF>
 </metadata>
 <g transform="translate(0 -288.53)">
  <g transform="matrix(.47045 0 0 .47045 -2971.8 108.39)" data-name="Gruppe 8694">
   <path transform="translate(6317,388)" d="m9 12.924a0.37 0.37 0 0 1-0.262-0.109l-2.353-2.376a0.369 0.369 0 0 1 0.015-0.539 4.032 4.032 0 0 1 5.208 0 0.369 0.369 0 0 1 0.012 0.538l-2.358 2.377a0.364 0.364 0 0 1-0.262 0.109zm4.133-4.169a0.364 0.364 0 0 1-0.252-0.1 5.78 5.78 0 0 0-7.762 0 0.365 0.365 0 0 1-0.51-7e-3l-1.359-1.375a0.38 0.38 0 0 1 5e-3 -0.542 8.439 8.439 0 0 1 11.494 0 0.385 0.385 0 0 1 0.116 0.27 0.38 0.38 0 0 1-0.111 0.272l-1.36 1.374a0.365 0.365 0 0 1-0.26 0.108z" fill="#5f6368" data-name="Wifi"/>
   <path transform="translate(6317,388)" d="m9 2.684a10.184 10.184 0 0 1 7.016 2.8 0.363 0.363 0 0 0 0.511 0l1.363-1.376a0.379 0.379 0 0 0 0-0.537 12.844 12.844 0 0 0-17.774 0 0.379 0.379 0 0 0 0 0.537l1.357 1.375a0.363 0.363 0 0 0 0.511 0 10.184 10.184 0 0 1 7.016-2.799z" fill="#5f6368" opacity=".4" data-name="Wifi-path"/>
   <line transform="translate(6319.4 386.6)" x2="12.487" y2="12.487" fill="none" stroke="#fff" stroke-linecap="round" stroke-width="3" data-name="Linie 126"/>
   <line transform="translate(6318.6 387.38)" x2="12.487" y2="12.487" fill="none" stroke="#5f6368" stroke-linecap="round" stroke-width="2" data-name="Linie 127"/>
  </g>
 </g>
</svg>
